<svg xmlns="http://www.w3.org/2000/svg" viewBox="0 0 640 512">
  <path d="M0 72C0 49.9 17.9 32 40 32l560 0c22.1 0 40 17.9 40 40l0 72c0 22.1-17.9 40-40 40l-560 0C17.9 184 0 166.1 0 144L0 72zm64 0l0 72 160 0 0-72L64 72zm224 0l0 72 160 0 0-72-160 0zm224 72l160 0 0-72-160 0 0 72zM88 256a24 24 0 1 1 0 48 24 24 0 1 1 0-48zm56 24a24 24 0 1 1 48 0 24 24 0 1 1 -48 0zm80 0a24 24 0 1 1 48 0 24 24 0 1 1 -48 0zm80 0a24 24 0 1 1 48 0 24 24 0 1 1 -48 0zm80 0a24 24 0 1 1 48 0 24 24 0 1 1 -48 0zm80 0a24 24 0 1 1 48 0 24 24 0 1 1 -48 0zM88 352a24 24 0 1 1 0 48 24 24 0 1 1 0-48zm56 24a24 24 0 1 1 48 0 24 24 0 1 1 -48 0zm80 0a24 24 0 1 1 48 0 24 24 0 1 1 -48 0zm80 0a24 24 0 1 1 48 0 24 24 0 1 1 -48 0zm80 0a24 24 0 1 1 48 0 24 24 0 1 1 -48 0zm80 0a24 24 0 1 1 48 0 24 24 0 1 1 -48 0z"/>
</svg>