<svg xmlns="http://www.w3.org/2000/svg" viewBox="0 0 512 512">
  <path d="M256 0c53 0 96 43 96 96l0 3.6c0 15.7-12.7 28.4-28.4 28.4l-135.3 0c-15.7 0-28.4-12.7-28.4-28.4L160 96c0-53 43-96 96-96zM41.4 105.4c12.5-12.5 32.8-12.5 45.3 0l64 64c.7 .7 1.3 1.4 1.9 2.1C163.2 155.2 181.5 144 202.7 144l106.7 0c21.1 0 39.5 11.2 49.9 28c.6-.7 1.3-1.4 1.9-2.1l64-64c12.5-12.5 32.8-12.5 45.3 0s12.5 32.8 0 45.3l-64 64c-.7 .7-1.4 1.3-2.1 1.9c5.5 9.5 8.6 20.5 8.6 32.2l0 7.6 32 0c17.7 0 32 14.3 32 32s-14.3 32-32 32l-32 0 0 32c0 9.2-1.9 17.9-5.3 25.8l71.3 71.3c12.5 12.5 12.5 32.8 0 45.3s-32.8 12.5-45.3 0l-66.1-66.1C333.8 470.9 296.1 480 256 480s-77.8-9.1-106.2-24.4L83.7 521.7c-12.5 12.5-32.8 12.5-45.3 0s-12.5-32.8 0-45.3L109.7 405c-3.4-7.9-5.3-16.6-5.3-25.8l0-32-32 0c-17.7 0-32-14.3-32-32s14.3-32 32-32l32 0 0-7.6c0-11.8 3.1-22.7 8.6-32.2c-.7-.6-1.4-1.2-2.1-1.9l-64-64c-12.5-12.5-12.5-32.8 0-45.3z"/>
</svg>