<svg xmlns="http://www.w3.org/2000/svg" viewBox="0 0 384 512">
  <path d="M297.2 248.9C311.6 228.3 320 203.2 320 176c0-70.7-57.3-128-128-128S64 105.3 64 176c0 27.2 8.4 52.3 22.8 72.9c3.7 5.3 8.1 11.3 12.8 17.7l0 0c12.9 17.7 28.3 38.9 39.8 59.8c10.4 19 15.7 38.8 18.3 57.5L109 384c-2.2-12-5.9-23.7-11.8-34.5c-9.9-18-22.2-34.9-34.5-51.8l0 0 0 0c-5.2-7.1-10.4-14.2-15.4-21.4C27.6 247.9 16 213.3 16 176C16 78.8 94.8 0 192 0s176 78.8 176 176c0 37.3-11.6 71.9-31.4 100.3C330 293.6 320 310 308 322c-4 3.9-7 8.2-8.9 12.8l-45.8 0c2.2-7.9 6.1-15.4 11.8-21.8c7.8-8.9 16.8-17.8 26.5-26.5c4.7-4.3 9.5-8.7 14.5-13.2c.6-.6 1.3-1.2 1.9-1.8zM176 480c-8.8 0-16-7.2-16-16l0-16 64 0 0 16c0 8.8-7.2 16-16 16l-32 0zm-48-96l0-8c0-4.4-.7-8.8-2.1-13l85.5 0c-1.4 4.2-2.1 8.6-2.1 13l0 8-81.4 0z"/>
</svg>