<svg xmlns="http://www.w3.org/2000/svg" viewBox="0 0 512 512">
  <path d="M32 32C14.3 32 0 46.3 0 64L0 448c0 17.7 14.3 32 32 32l448 0c17.7 0 32-14.3 32-32l0-384c0-17.7-14.3-32-32-32L32 32zM96 128l320 0 0 256L96 384l0-256zm256 80c0-8.8-7.2-16-16-16l-160 0c-8.8 0-16 7.2-16 16s7.2 16 16 16l160 0c8.8 0 16-7.2 16-16zm0 64c0-8.8-7.2-16-16-16l-160 0c-8.8 0-16 7.2-16 16s7.2 16 16 16l160 0c8.8 0 16-7.2 16-16zm0 64c0-8.8-7.2-16-16-16l-160 0c-8.8 0-16 7.2-16 16s7.2 16 16 16l160 0c8.8 0 16-7.2 16-16z"/>
</svg>