<svg xmlns="http://www.w3.org/2000/svg" viewBox="0 0 320 512">
  <path d="M160 64c-26.5 0-48 21.5-48 48l0 164.5C91.3 291.9 72 321.2 72 355c0 48.6 39.4 88 88 88s88-39.4 88-88c0-33.8-19.3-63.1-48-77.5L200 112c0-22.1-17.9-40-40-40zM80 112C80 67.8 115.8 32 160 32s80 35.8 80 80l0 151.6c28.3 23.2 40 51.3 40 71.4c0 66.3-53.7 120-120 120S40 421.3 40 355c0-20.1 11.7-48.2 40-71.4L80 112zm80 168l0-120c0-8.8-7.2-16-16-16s-16 7.2-16 16l0 120c-23.3 8.1-40 30.1-40 56c0 33.1 26.9 60 60 60s60-26.9 60-60c0-25.9-16.7-47.9-40-56z"/>
</svg>